<?xml version="1.0" encoding="UTF-8"?>
<svg width="52px" height="68px" viewBox="0 0 52 68" version="1.1" xmlns="http://www.w3.org/2000/svg" xmlns:xlink="http://www.w3.org/1999/xlink">
    <title>3FB8CB38-27DD-4699-8405-DB091483E7BC@1x</title>
    <defs>
        <filter id="filter-1">
            <feColorMatrix in="SourceGraphic" type="matrix" values="0 0 0 0 0.525490 0 0 0 0 0.529412 0 0 0 0 0.658824 0 0 0 1.000000 0"></feColorMatrix>
        </filter>
    </defs>
    <g id="Page-1" stroke="none" stroke-width="1" fill="none" fill-rule="evenodd">
        <g id="shopping-bag" transform="translate(-180.000000, -277.000000)" filter="url(#filter-1)">
            <g transform="translate(181.000000, 278.000000)">
                <path d="M48.3050847,17.875 L38.9830508,17.875 L38.9830508,14.1796875 C38.9830508,6.359375 32.7118644,0 25,0 C17.2881356,0 11.0169492,6.359375 11.0169492,14.1796875 L11.0169492,17.875 L1.69491525,17.875 C0.762711864,17.875 0,18.6484375 0,19.59375 L0,59.125 C0,62.90625 3.05084746,66 6.77966102,66 L43.220339,66 C46.9491525,66 50,62.90625 50,59.125 L50,19.59375 C50,18.6484375 49.2372881,17.875 48.3050847,17.875 Z M14.4067797,14.1796875 C14.4067797,8.25 19.1525424,3.4375 25,3.4375 C30.8474576,3.4375 35.5932203,8.25 35.5932203,14.1796875 L35.5932203,17.875 L14.4067797,17.875 L14.4067797,14.1796875 Z M46.6101695,59.125 C46.6101695,61.015625 45.0847458,62.5625 43.220339,62.5625 L6.77966102,62.5625 C4.91525424,62.5625 3.38983051,61.015625 3.38983051,59.125 L3.38983051,21.3125 L11.0169492,21.3125 L11.0169492,30.9375 C11.0169492,31.8828125 11.779661,32.65625 12.7118644,32.65625 C13.6440678,32.65625 14.4067797,31.8828125 14.4067797,30.9375 L14.4067797,21.3125 L35.5932203,21.3125 L35.5932203,30.9375 C35.5932203,31.8828125 36.3559322,32.65625 37.2881356,32.65625 C38.220339,32.65625 38.9830508,31.8828125 38.9830508,30.9375 L38.9830508,21.3125 L46.6101695,21.3125 L46.6101695,59.125 Z" id="Shape" stroke="#D5D9E2" stroke-width="0.5" fill="#FE7D4E" fill-rule="nonzero"></path>
            </g>
        </g>
    </g>
</svg>