<?xml version="1.0" encoding="UTF-8"?>
<svg width="60px" height="60px" viewBox="0 0 60 60" version="1.1" xmlns="http://www.w3.org/2000/svg" xmlns:xlink="http://www.w3.org/1999/xlink">
    <title>2E5CE01F-1BD3-46A5-ADAB-FCD4DE86084B@1x</title>
    <g id="Page-1" stroke="none" stroke-width="1" fill="none" fill-rule="evenodd">
        <g id="DONATION---Charities" transform="translate(-85.000000, -460.000000)" fill="#FE7D4E" fill-rule="nonzero">
            <g id="dollar" transform="translate(85.000000, 460.000000)">
                <path d="M41.1941193,2.15693622 C37.6402403,0.725474031 33.8735183,0 29.9996253,0 C14.8832736,0 2.08421289,11.2958105 0.229330868,26.2737016 C0.0771930701,27.4983137 0,28.7529041 0,30.0014989 C0,46.5427565 13.4578249,60 29.9996253,60 C46.5421751,60 60,46.5427565 60,30.0014989 C60,17.6811811 52.6186937,6.75110545 41.1941193,2.15693622 Z M29.9996253,57.7516301 C14.6974107,57.7516301 2.24834185,45.3031552 2.24834185,30.0014989 C2.24834185,28.8450873 2.31953934,27.684179 2.46118488,26.5510005 C4.17666971,12.696545 16.0156884,2.24836993 30.0003747,2.24836993 C33.5849811,2.24836993 37.0691615,2.91913363 40.3532395,4.24267406 C50.923444,8.49359215 57.753157,18.6045117 57.753157,30.0014989 C57.7516582,45.3031552 45.3025893,57.7516301 29.9996253,57.7516301 Z M36.5348056,19.9580304 C36.8743052,20.4781533 37.5712912,20.6227985 38.0906581,20.2832946 C38.6100251,19.9430413 38.7569168,19.2467961 38.4159183,18.7266732 C36.9282654,16.4505733 34.1725477,14.995878 31.1245456,14.8092633 L31.1245456,9.69871843 C31.1245456,9.07741887 30.6216665,8.57453346 30.0003747,8.57453346 C29.3790829,8.57453346 28.8762038,9.07741887 28.8762038,9.69871843 L28.8762038,14.8984486 C24.6343322,15.5377351 21.4012166,18.6697145 21.4012166,22.4334857 C21.4012166,26.1965075 24.6335827,29.3269879 28.8762038,29.9662745 L28.8762038,40.8821105 C26.584394,40.708986 24.5496446,39.6365135 23.4689417,37.9794649 C23.1279431,37.459342 22.4324561,37.3124485 21.9130891,37.6519523 C21.3929727,37.9907067 21.2468305,38.6877014 21.5855806,39.2070749 C23.0732335,41.486922 25.8282017,42.9423668 28.8762038,43.128232 L28.8762038,48.2380274 C28.8762038,48.8585775 29.3790829,49.3622124 30.0003747,49.3622124 C30.6216665,49.3622124 31.1245456,48.8585775 31.1245456,48.2380274 L31.1245456,43.0382972 C35.3656678,42.3982613 38.5987834,39.2670314 38.5987834,35.5025107 C38.5987834,31.7394889 35.3664173,28.6075096 31.1245456,27.9674736 L31.1245456,17.0561343 C33.4171049,17.2307577 35.4511048,18.3024807 36.5348056,19.9580304 Z M28.8762038,27.6886757 C25.8829114,27.1168403 23.6495585,24.9808889 23.6495585,22.4342352 C23.6495585,19.8860826 25.8829114,17.7493817 28.8762038,17.1767968 L28.8762038,27.6886757 Z M36.3504415,35.5055085 C36.3504415,38.0529116 34.1178381,40.1911114 31.1245456,40.7636963 L31.1245456,30.2488196 C34.1163392,30.8214045 36.3504415,32.9566065 36.3504415,35.5055085 Z" id="Shape"></path>
            </g>
        </g>
    </g>
</svg>