<?xml version="1.0" encoding="UTF-8"?>
<svg width="86px" height="86px" viewBox="0 0 86 86" version="1.1" xmlns="http://www.w3.org/2000/svg" xmlns:xlink="http://www.w3.org/1999/xlink">
    <title>Group</title>
    <g id="Symbols" stroke="none" stroke-width="1" fill="none" fill-rule="evenodd">
        <g id="NavBar-Menu" transform="translate(-163.000000, 0.000000)">
            <g id="Group" transform="translate(163.934064, 0.573593)">
                <rect id="Orange-Button" fill="#FE7D4E" transform="translate(42.426407, 42.426407) rotate(-45.000000) translate(-42.426407, -42.426407) " x="12.4264069" y="12.4264069" width="60" height="60" rx="18"></rect>
                <g transform="translate(27.426407, 28.854233)" fill="#FFFFFF" id="Icon/Miscellaneous/Book-Open">
                    <path d="M26.25,21.25 L18.75,21.25 C17.84,21.25 16.98625,21.49375 16.25,21.92125 L16.25,8.75 C16.25,6.6825 17.9325,5 20,5 L26.25,5 L26.25,21.25 Z M13.75,21.92125 C13.01375,21.49375 12.16,21.25 11.25,21.25 L3.75,21.25 L3.75,5 L10,5 C12.0675,5 13.75,6.6825 13.75,8.75 L13.75,21.92125 Z M27.5,2.5 L20,2.5 C17.9475,2.5 16.14,3.5075 15,5.03875 C13.86,3.5075 12.05125,2.5 10,2.5 L2.5,2.5 C1.81,2.5 1.25,3.06 1.25,3.75 L1.25,22.5 C1.25,23.19125 1.81,23.75 2.5,23.75 L11.25,23.75 C12.62875,23.75 13.75,24.87125 13.75,26.25 C13.75,26.94125 14.31,27.5 15,27.5 C15.69,27.5 16.25,26.94125 16.25,26.25 C16.25,24.87125 17.37125,23.75 18.75,23.75 L27.5,23.75 C28.19125,23.75 28.75,23.19125 28.75,22.5 L28.75,3.75 C28.75,3.06 28.19125,2.5 27.5,2.5 L27.5,2.5 Z" id="Fill-1"></path>
                </g>
            </g>
        </g>
    </g>
</svg>